Coordinates
version=1
nRows=16
nColumns=36
inDegrees=yes

Units are S.I. units (second, meters, Newtons, ...)
If the header above contains a line with 'inDegrees', this indicates whether rotational values are in degrees (yes) or radians (no).

endheader
time	pelvis_tilt	pelvis_list	pelvis_rotation	pelvis_tx	pelvis_ty	pelvis_tz	hip_flexion_r	hip_adduction_r	hip_rotation_r	knee_angle_r	knee_angle_r_beta	ankle_angle_r	subtalar_angle_r	mtp_angle_r	hip_flexion_l	hip_adduction_l	hip_rotation_l	knee_angle_l	knee_angle_l_beta	ankle_angle_l	subtalar_angle_l	mtp_angle_l	lumbar_extension	lumbar_bending	lumbar_rotation	arm_flex_r	arm_add_r	arm_rot_r	elbow_flex_r	pro_sup_r	arm_flex_l	arm_add_l	arm_rot_l	elbow_flex_l	pro_sup_l
      7.93333330	     -6.98228085	      1.07761358	      9.64827534	      0.91800388	      0.93950068	     -0.17795120	     15.36589655	     -9.44028972	     -8.16514655	     13.57190241	      0.23687438	      8.39019474	     -3.55421593	     -7.49999987	     17.47337784	     -6.81975090	     -3.08181407	     15.79626125	      0.27569677	      3.25932806	     -1.58747017	     -7.49999987	    -13.59901129	     -2.46480051	      1.51729764	     44.06488072	      8.97777194	     72.89120778	    130.82976052	     96.96113611	     55.75885922	      9.61734679	     73.39352435	    128.11817829	     78.46576525
      7.95000000	     -5.79433731	      1.14137972	      9.48091408	      0.92332843	      0.94603340	     -0.17822100	     12.43031222	     -8.88974494	     -8.43685805	     11.30200618	      0.19725722	      7.81939976	     -3.27619734	     -7.49999987	     14.36307478	     -6.92535399	     -3.12892583	     13.47547847	      0.23519147	      2.83406516	     -1.46744277	     -7.49999987	    -12.59360553	     -2.46360477	      1.26691777	     41.34446788	      9.48407708	     72.53456886	    131.13326373	     96.40235918	     53.66973934	      9.52097982	     72.66399784	    127.92961326	     76.53924076
      7.96666670	     -4.68026274	      1.18106951	      9.24838974	      0.92727814	      0.94978701	     -0.17934932	      9.74334487	     -8.38783509	     -8.34747222	      9.11240171	      0.15904141	      7.28180329	     -2.97520386	     -7.49999987	     11.57029449	     -7.01789210	     -3.25007165	     11.40035911	      0.19897380	      2.66712506	     -1.34573996	     -7.49999987	    -11.66839213	     -2.33623652	      1.02618811	     39.19659607	      9.92343075	     72.20663114	    130.98059000	     94.32026567	     51.99790296	      9.21223580	     71.66281015	    127.66947017	     74.59705757
      7.98333330	     -3.76825040	      1.27027870	      9.13451489	      0.92906128	      0.94866374	     -0.18211023	      7.54166918	     -8.10807843	     -8.21715151	      7.18930848	      0.12547710	      6.77355017	     -3.06764717	     -7.49999987	      9.35681501	     -6.89079713	     -3.05951102	      9.66818589	      0.16874168	      2.66095741	     -1.32493496	     -7.49999987	    -10.56993488	     -2.13290433	      0.83912375	     37.60793173	     10.26480751	     71.39933689	    130.85532796	     94.24637934	     50.49282153	      9.21191885	     70.64540778	    127.25063751	     74.07049095
      8.00000000	     -2.97753211	      1.40518114	      9.09442948	      0.93607560	      0.95324553	     -0.18607563	      5.48922133	     -8.02668062	     -8.14992084	      5.58900066	      0.09754646	      6.17270271	     -3.23402781	     -7.49999987	      7.26370245	     -6.64107442	     -2.67313367	      8.00831444	      0.13977145	      2.75104776	     -1.21618543	     -7.49999987	     -9.44477651	     -1.98008526	      0.85172197	     36.40492548	     10.31918255	     70.97020295	    130.61466178	     94.08805378	     48.97892088	      9.17196078	     70.28667618	    127.10893180	     73.68974649
      8.01666670	     -2.07913020	      1.54890696	      9.07459795	      0.93786124	      0.95466376	     -0.18910729	      3.64668324	     -7.99842432	     -7.76703061	      4.39061236	      0.07663064	      5.72982753	     -4.08487983	     -7.49999987	      5.18632252	     -6.31229974	     -1.96087424	      6.52812851	      0.11393734	      3.09583035	     -1.50479277	     -7.49999987	     -8.75097560	     -1.67051503	      0.57774959	     35.74463571	     10.50769015	     70.74807861	    130.56349051	     91.64115968	     47.98917125	      9.21483941	     69.79021246	    127.15344819	     68.81154499
      8.03333330	     -1.42608603	      1.66111696	      9.10332860	      0.94609206	      0.95558816	     -0.18824763	      2.07172998	     -7.92133351	     -7.46651283	      3.49434160	      0.06098777	      5.57202107	     -4.42287618	     -7.49999987	      3.35166400	     -6.12899680	     -1.44289014	      5.22755980	      0.09123813	      3.38340308	     -1.58028909	     -7.49999987	     -7.75364210	     -1.57876125	      0.48391044	     34.74516772	     10.42682640	     70.75645052	    130.88685289	     91.60275720	     46.59930312	      9.35139775	     69.73001389	    126.92170504	     68.71302737
      8.05000000	     -0.59473409	      1.84851539	      9.12675000	      0.95145534	      0.95519738	     -0.18838636	      0.35997279	     -7.87529083	     -6.94504938	      2.80664115	      0.04898513	      5.20984798	     -5.28514033	     -7.49999987	      1.43295750	     -5.95161295	     -0.99704522	      4.13583345	      0.07218391	      3.63350119	     -1.94577126	     -7.49999987	     -7.09535286	     -1.59309659	      0.63177156	     34.31310954	     10.23406630	     70.67051570	    131.27336342	     89.87383769	     45.67981326	      9.68728952	     69.44248462	    126.59248932	     67.84798511
      8.06666670	      0.05541712	      2.07646670	      9.28051681	      0.95289884	      0.96339504	     -0.18627408	     -1.08616786	     -7.85819830	     -6.78907071	      2.15720073	      0.03765026	      5.10414783	     -5.44106980	     -7.49999987	     -0.10859322	     -5.77403018	     -0.32979155	      3.24105996	      0.05656717	      3.67237163	     -2.18154872	     -7.49999987	     -6.42156945	     -1.61036964	      0.84090620	     33.70057060	      9.92437303	     70.85346524	    131.16156637	     89.12199412	     44.57633497	      9.80120647	     69.70854325	    126.24179782	     66.92585859
      8.08333330	      0.75374276	      2.21982342	      9.32658692	      0.95584188	      0.96001071	     -0.18408937	     -2.38031228	     -7.71417005	     -6.34059139	      1.71968225	      0.03001412	      5.16487446	     -5.87159200	     -7.49999987	     -1.43111220	     -5.80690143	     -0.06688426	      2.72029298	      0.04747807	      3.82871118	     -2.36842621	     -7.49999987	     -6.03558405	     -1.71688255	      1.03015109	     33.45041052	      9.75929911	     70.83138188	    131.04751963	     89.21714728	     43.96367456	      9.86259121	     69.82314212	    125.81948221	     66.61936318
      8.10000000	      1.34549550	      2.35712609	      9.23923311	      0.95700195	      0.95765545	     -0.18661024	     -3.31102317	     -7.74100833	     -6.06196320	      1.57038623	      0.02740841	      5.24152361	     -6.39324297	     -7.49999987	     -2.56222459	     -5.74502248	      0.02034982	      2.33451372	      0.04074495	      4.08725559	     -2.34358048	     -7.49999987	     -5.63372211	     -1.66465298	      1.13218930	     33.56883758	      9.61579805	     70.64004843	    130.88153897	     91.27027436	     43.51017652	      9.80916761	     69.69913355	    125.58093937	     66.23942312
      8.11666670	      1.86882338	      2.45104562	      9.07617454	      0.95706415	      0.95138168	     -0.18634566	     -3.94782506	     -7.76446516	     -5.65992979	      1.56037804	      0.02723373	      5.61808476	     -6.80208242	     -7.49999987	     -3.45078422	     -5.74609814	      0.15218023	      2.09685483	      0.03659702	      4.43205193	     -2.68440420	     -7.49999987	     -5.22861720	     -1.62089849	      1.21916269	     33.89250108	      9.44853353	     70.32060086	    130.92383701	     91.38158697	     43.43183495	      9.72095567	     69.26507754	    125.36242098	     66.23848975
      8.13333330	      2.42826809	      2.55779287	      8.93273895	      0.95970183	      0.95048499	     -0.18420592	     -4.64142336	     -7.75753379	     -4.97739634	      1.58855524	      0.02772552	      5.71871356	     -7.86505484	     -7.49999987	     -4.25035258	     -5.78712337	      0.44183996	      2.00396062	      0.03497571	      4.54214777	     -3.20612029	     -7.49999987	     -4.93282327	     -1.60357202	      1.36539484	     34.20771371	      9.33348645	     69.64376145	    130.97611074	     92.25041293	     43.41282626	      9.63671900	     68.64274069	    125.10602588	     66.49541199
      8.15000000	      2.62910183	      2.62965577	      8.82972630	      0.96233361	      0.95273278	     -0.18685816	     -4.94522114	     -7.84190423	     -4.91583238	      1.66971509	      0.02914203	      5.79342425	     -7.89131800	     -7.49999987	     -4.55920292	     -5.78534400	      0.48912385	      2.08439752	      0.03637960	      4.55739682	     -3.20893010	     -7.49999987	     -4.38096253	     -1.51088165	      1.35402553	     34.23234737	      9.34282453	     69.65732873	    131.06219334	     92.25765508	     43.40137088	      9.64403284	     68.64232560	    125.12047918	     66.49838859
      8.16666670	      3.14251935	      2.67407122	      8.53452171	      0.96166487	      0.94981641	     -0.18661417	     -5.56166160	     -7.83173277	     -3.80664477	      1.66450319	      0.02905106	      6.08577168	     -8.93527267	     -7.49999987	     -5.42785994	     -5.80422047	      0.57053869	      1.80151777	      0.03144242	      4.75189607	     -3.81879056	     -7.49999987	     -4.09873696	     -1.36240366	      1.28185723	     34.68439803	      9.09482822	     69.12189692	    131.55786943	     89.55757322	     43.15752562	      9.19338807	     67.47648549	    124.76336116	     65.97777300
      8.18333330	      3.41232850	      2.69651615	      8.40459262	      0.96206199	      0.95223127	     -0.18617203	     -5.81220505	     -7.86654149	     -3.56792716	      1.77985973	      0.03106441	      6.31084838	     -9.00490761	     -7.49999987	     -5.89241792	     -5.81105412	      0.67386069	      1.67439955	      0.02922379	      4.76372588	     -4.18621911	     -7.49999987	     -3.75632830	     -1.24284143	      1.25743876	     34.73411927	      8.93019271	     68.54447842	    131.77157499	     94.09437597	     43.05545145	      9.09961969	     66.91145444	    124.39492933	     67.19475531
